<svg xmlns="http://www.w3.org/2000/svg" width="46" height="34.001" viewBox="0 0 46 34.001">
  <path id="icons8-discord" d="M41.625,10.769C37.645,7.566,31.348,7.023,31.078,7a.993.993,0,0,0-.988.586,6.635,6.635,0,0,0-.3.832,24.556,24.556,0,0,1,8.793,3.156,1,1,0,1,1-1.055,1.7C32.492,10.156,26.211,10,25,10s-7.5.156-12.523,3.277a1,1,0,0,1-1.055-1.7,24.544,24.544,0,0,1,8.793-3.152,8.289,8.289,0,0,0-.3-.836A.987.987,0,0,0,18.922,7c-.27.02-6.566.563-10.6,3.809C6.215,12.762,2,24.152,2,34a1,1,0,0,0,.133.5c2.906,5.109,10.84,6.445,12.648,6.5h.031a1,1,0,0,0,.809-.41l1.828-2.516a19.414,19.414,0,0,1-7.6-3.566,1,1,0,0,1,1.324-1.5C11.234,33.063,15.875,37,25,37c9.141,0,13.781-3.953,13.828-3.992a1,1,0,0,1,1.32,1.5,19.413,19.413,0,0,1-7.6,3.566l1.828,2.516a1,1,0,0,0,.809.41h.031c1.809-.059,9.742-1.395,12.648-6.5A1,1,0,0,0,48,34C48,24.152,43.785,12.762,41.625,10.769ZM18.5,30A3.774,3.774,0,0,1,15,26a3.774,3.774,0,0,1,3.5-4A3.774,3.774,0,0,1,22,26,3.774,3.774,0,0,1,18.5,30Zm13,0A3.774,3.774,0,0,1,28,26a3.774,3.774,0,0,1,3.5-4A3.774,3.774,0,0,1,35,26,3.774,3.774,0,0,1,31.5,30Z" transform="translate(-2 -6.999)" fill="#fff" opacity="0.69"/>
</svg>
