<svg xmlns="http://www.w3.org/2000/svg" width="43.968" height="40" viewBox="0 0 43.968 40">
  <path id="icons8-telegram" d="M46.137,6.552a3.064,3.064,0,0,0-3.146-.238h0C41.708,6.828,6.728,21.832,5.3,22.445c-.259.09-2.521.934-2.288,2.814a3.4,3.4,0,0,0,2.248,2.478l8.893,3.045c.59,1.964,2.765,9.21,3.246,10.758.3.965.789,2.233,1.646,2.494a2.044,2.044,0,0,0,1.984-.355l5.437-5.043,8.777,6.845.209.125a4.226,4.226,0,0,0,1.712.4,3.168,3.168,0,0,0,1.211-.237,3.669,3.669,0,0,0,1.9-1.935L46.831,9.753C47.231,7.933,46.675,7.007,46.137,6.552ZM22,32l-3,8L16,30,39,13Z" transform="translate(-2.999 -6.002)" fill="#fff" opacity="0.69"/>
</svg>
