<svg xmlns="http://www.w3.org/2000/svg" width="42" height="42" viewBox="0 0 42 42">
  <path id="icons8-tiktok" d="M41,4H9A5.006,5.006,0,0,0,4,9V41a5.006,5.006,0,0,0,5,5H41a5.006,5.006,0,0,0,5-5V9A5.006,5.006,0,0,0,41,4ZM37.006,22.323c-.227.021-.457.035-.69.035a7.492,7.492,0,0,1-6.269-3.388V30.507A8.527,8.527,0,1,1,21.52,21.98c.178,0,.352.016.527.027v4.2a4.342,4.342,0,1,0-.527,8.651,4.459,4.459,0,0,0,4.527-4.3c0-.095.042-19.594.042-19.594H30.1a7.488,7.488,0,0,0,6.9,6.685Z" transform="translate(-4 -4)" fill="#fff" opacity="0.69"/>
</svg>
