<svg xmlns="http://www.w3.org/2000/svg" width="209.247" height="77.515" viewBox="1070.383 3021.029 209.247 77.515"><g data-name="abdk"><path d="M1124.667 3059.783c4.386 2.72 9.264 4.754 14.538 5.988l.006-.005h.001c-6.706 5.156-10.88 8.929-15.162 13.482-4.454 4.736-9.19 10.313-14.888 19.296-.213-.31-.543-.814-.954-1.441-1.268-1.937-3.307-5.051-5.05-7.267 2.994-12.802 10.74-23.277 21.51-30.053Z" fill="#fff" fill-rule="evenodd" data-name="Path 1176"/><path d="M1109.13 3044.26c2.727-4.386 4.754-9.247 5.988-14.522a.174.174 0 0 0-.005-.006v-.001c5.156 6.707 8.929 10.88 13.482 15.163 4.736 4.453 10.312 9.189 19.296 14.887-.31.213-.814.543-1.441.954-1.937 1.268-5.052 3.308-7.268 5.05-12.801-2.994-23.276-10.756-30.052-21.525Z" fill="#fff" fill-rule="evenodd" data-name="Path 1177"/><path d="M1093.615 3059.79c-4.386-2.72-9.264-4.755-14.538-5.988l-.007.005c6.706-5.157 10.88-8.93 15.162-13.483 4.453-4.736 9.19-10.312 14.888-19.295.213.31.543.814.953 1.44 1.269 1.938 3.308 5.052 5.05 7.268-2.993 12.802-10.738 23.277-21.508 30.052Z" fill="#fff" fill-rule="evenodd" data-name="Path 1178"/><path d="M1109.158 3075.298a48.47 48.47 0 0 0-6.003 14.538l.006.006v.001c-5.157-6.706-8.93-10.88-13.483-15.162-4.736-4.454-10.312-9.19-19.295-14.888.31-.213.813-.543 1.44-.954 1.938-1.268 5.052-3.307 7.268-5.05 12.802 2.994 23.292 10.74 30.067 21.51Z" fill="#fff" fill-rule="evenodd" data-name="Path 1179"/><path d="m1184.52 3053.262-7.516 18.437h-6.223l10.138-24.214h7.202l10.173 24.214h-6.328l-7.446-18.437Zm6.118 14.46h-12.306l1.294-4.567h9.648l1.364 4.566Z" fill="#fff" fill-rule="evenodd" data-name="Path 1180"/><path d="M1201.43 3071.7v-24.215h12.725c1.794 0 3.332.242 4.614.726 1.305.485 2.296 1.188 2.972 2.11.699.9 1.048 1.995 1.048 3.287 0 .945-.198 1.822-.594 2.629a5.386 5.386 0 0 1-1.643 2.04 6.65 6.65 0 0 1-2.517 1.177l-.175-.554c1.818.277 3.263.98 4.335 2.11 1.072 1.107 1.608 2.48 1.608 4.117 0 1.36-.373 2.537-1.119 3.528-.745.97-1.829 1.718-3.25 2.249-1.4.53-3.054.795-4.965.795h-13.04Zm5.523-10.067v-4.29H1213c.885 0 1.608-.092 2.167-.276.583-.208 1.014-.496 1.294-.865.28-.392.42-.876.42-1.453 0-.899-.315-1.545-.945-1.937-.629-.415-1.608-.623-2.936-.623h-5.664v14.806h6.328c.956 0 1.736-.092 2.342-.277.606-.207 1.06-.507 1.364-.9.303-.391.454-.887.454-1.487 0-.922-.35-1.602-1.049-2.04-.699-.439-1.77-.658-3.216-.658h-6.607Z" fill="#fff" fill-rule="evenodd" data-name="Path 1181"/><path d="M1227.996 3071.7v-24.215h10.873c2.727 0 5.115.496 7.167 1.487 2.074.992 3.658 2.399 4.753 4.22 1.12 1.822 1.678 3.944 1.678 6.366 0 2.444-.559 4.589-1.678 6.434-1.095 1.822-2.68 3.228-4.753 4.22-2.052.992-4.44 1.487-7.167 1.487h-10.873Zm10.593-5.086c1.585 0 2.948-.276 4.09-.83 1.143-.576 2.017-1.384 2.622-2.421.63-1.061.943-2.318.943-3.77 0-1.477-.313-2.734-.943-3.771-.605-1.061-1.491-1.868-2.657-2.422-1.141-.553-2.494-.83-4.055-.83h-4.58v14.044h4.58Z" fill="#fff" fill-rule="evenodd" data-name="Path 1182"/><path d="m1272.306 3071.689-10.114-11.68v-1.108l9.822-11.45h7.342l-10.383 11.935 10.657 12.303h-7.324Zm-15.5.011-.034-24.214h6.049v24.214h-6.014Z" fill="#fff" fill-rule="evenodd" data-name="Path 1183"/></g></svg>