<svg xmlns="http://www.w3.org/2000/svg" width="263.755" height="41.649" viewBox="1070.383 2934.38 263.755 41.649"><g data-name="openZeppelin"><path d="M1107.402 2976.028v-10.797h-11.642a8.975 8.975 0 0 0-7.72 4.419l-3.774 6.378h23.136Z" fill="#fff" fill-rule="evenodd" data-name="Path 1185"/><path d="M1070.383 2934.38v10.797h30.635l6.383-10.797h-37.018Z" fill="#fff" fill-rule="evenodd" data-name="Path 1186"/><path d="m1085.447 2951.533-15.064 24.496h12.834l18.015-29.306h-7.088c-3.565 0-6.867 1.826-8.697 4.81Z" fill="#fff" fill-rule="evenodd" data-name="Path 1187"/><path d="M1133.729 2966.452c-6.283 0-10.906-4.636-10.906-10.856 0-6.16 4.653-10.855 10.935-10.855 6.283 0 10.935 4.755 10.935 10.855 0 6.16-4.682 10.856-10.964 10.856Zm.03-3.798c3.97 0 6.815-2.99 6.815-7.058 0-4.007-2.845-7.057-6.816-7.057-4 0-6.845 3.05-6.845 7.057 0 4.067 2.845 7.058 6.845 7.058Zm15.142 10.287v-22.608h3.793v2.004h.207c.415-.658 1.838-2.393 4.682-2.393 4.357 0 7.35 3.29 7.35 8.194 0 4.905-2.963 8.314-7.23 8.314-2.757 0-4.239-1.555-4.742-2.423h-.208v8.912h-3.852Zm7.942-10.018c2.489 0 4.178-1.944 4.178-4.725 0-2.87-1.689-4.725-4.208-4.725-2.549 0-4.149 2.064-4.149 4.725 0 2.93 1.778 4.725 4.179 4.725Zm19.113 3.529c-4.593 0-7.853-3.47-7.853-8.164 0-4.964 3.29-8.344 7.853-8.344 5.008 0 7.735 3.738 7.735 8.164v1.226h-11.854c.118 2.393 1.748 4.008 4.238 4.008 1.896 0 3.348-.898 3.882-2.183h3.585c-.77 3.2-3.556 5.293-7.586 5.293Zm-4.06-9.869h8.12c-.178-2.123-1.808-3.529-4.06-3.529-2.163 0-3.823 1.555-4.06 3.53Zm15.943 9.48v-15.73h3.674v1.914h.208c.622-1.166 2.163-2.303 4.386-2.303 3.496 0 5.63 2.482 5.63 5.832v10.287h-3.852v-9.27c0-1.914-1.215-3.2-2.993-3.2-1.867 0-3.2 1.495-3.2 3.469v9h-3.853Zm17.72 0v-3.559l10.787-13.726v-.21h-10.402v-3.438h15.322v3.528l-10.788 13.727v.239h10.847v3.439h-15.766Zm26.196.389c-4.593 0-7.853-3.47-7.853-8.164 0-4.964 3.29-8.344 7.853-8.344 5.008 0 7.735 3.738 7.735 8.164v1.226h-11.854c.118 2.393 1.748 4.008 4.238 4.008 1.896 0 3.349-.898 3.882-2.183h3.586c-.77 3.2-3.557 5.293-7.587 5.293Zm-4.06-9.869h8.12c-.178-2.123-1.808-3.529-4.06-3.529-2.163 0-3.823 1.555-4.06 3.53Zm15.943 16.358v-22.608h3.793v2.004h.207c.415-.658 1.838-2.393 4.683-2.393 4.357 0 7.35 3.29 7.35 8.194 0 4.905-2.964 8.314-7.231 8.314-2.757 0-4.238-1.555-4.742-2.423h-.209v8.912h-3.851Zm7.941-10.018c2.49 0 4.18-1.944 4.18-4.725 0-2.87-1.69-4.725-4.21-4.725-2.547 0-4.148 2.064-4.148 4.725 0 2.93 1.778 4.725 4.178 4.725Zm12.239 10.018v-22.608h3.793v2.004h.207c.415-.658 1.838-2.393 4.683-2.393 4.357 0 7.35 3.29 7.35 8.194 0 4.905-2.964 8.314-7.231 8.314-2.757 0-4.238-1.555-4.742-2.423h-.207v8.912h-3.853Zm7.941-10.018c2.49 0 4.18-1.944 4.18-4.725 0-2.87-1.69-4.725-4.209-4.725-2.548 0-4.148 2.064-4.148 4.725 0 2.93 1.777 4.725 4.177 4.725Zm19.115 3.529c-4.593 0-7.854-3.47-7.854-8.164 0-4.964 3.29-8.344 7.854-8.344 5.007 0 7.735 3.738 7.735 8.164v1.226h-11.854c.117 2.393 1.748 4.008 4.236 4.008 1.897 0 3.35-.898 3.883-2.183h3.586c-.77 3.2-3.557 5.293-7.586 5.293Zm-4.06-9.869h8.119c-.178-2.123-1.807-3.529-4.059-3.529-2.164 0-3.823 1.555-4.06 3.53Zm19.735 9.48c-2.726 0-4.268-1.645-4.268-4.426v-18.002h3.854v17.643c0 .897.443 1.376 1.245 1.376h.62v3.409h-1.451Zm7.081-17.823c-1.391 0-2.37-.867-2.37-2.273 0-1.346.979-2.243 2.37-2.243 1.393 0 2.37.897 2.37 2.243 0 1.406-.977 2.273-2.37 2.273Zm-1.926 17.823v-15.73h3.854v15.73h-3.854Zm8.535 0v-15.73h3.674v1.914h.207c.623-1.166 2.164-2.303 4.387-2.303 3.496 0 5.63 2.482 5.63 5.832v10.287h-3.853v-9.27c0-1.914-1.214-3.2-2.993-3.2-1.867 0-3.2 1.495-3.2 3.469v9h-3.852Z" fill="#fff" fill-rule="evenodd" data-name="Path 1188"/></g></svg>