<svg xmlns="http://www.w3.org/2000/svg" width="70.273" height="79.076" viewBox="0 2.017 70.273 79.076"><g data-name="Abitrum"><path d="M66.93 19.34 38.478 2.912a6.684 6.684 0 0 0-6.681 0L3.339 19.341A6.68 6.68 0 0 0 0 25.125v36.716l.073.044 8.205 4.735 2.644 1.527 8.837 5.103 12.037 6.948a6.685 6.685 0 0 0 6.68 0l28.455-16.43a6.678 6.678 0 0 0 3.342-5.784V25.125a6.678 6.678 0 0 0-3.342-5.784ZM65.6 55.239l-15.569-26.46-5.932 10.092 14.345 24.396-2.666 1.542-13.575-22.736-5.897 10.025 10.636 17.811-10.51 6.069a2.589 2.589 0 0 1-2.59 0L22.154 69.23l26.286-44.01H36.558l-23.24 38.916-2.67-1.541L32.63 25.221h-6.676a9.097 9.097 0 0 0-7.84 4.486L4.672 52.553v-27.09a2.59 2.59 0 0 1 1.294-2.244L33.84 7.125a2.587 2.587 0 0 1 2.59 0L64.304 23.22a2.592 2.592 0 0 1 1.296 2.244v29.775Z" fill="rgba(255,255,255,0.88 )" fill-rule="evenodd" data-name="Arbitrum"/></g></svg>