<svg xmlns="http://www.w3.org/2000/svg" width="91.115" height="91.115" viewBox="587.12 180.039 91.115 91.115"><path d="M594.26 225.597c0-21.217 17.2-38.417 38.417-38.417 21.217 0 38.417 17.2 38.417 38.417 0 21.217-17.2 38.416-38.417 38.416-21.217 0-38.417-17.2-38.417-38.416Zm38.417-45.558c-25.16 0-45.557 20.397-45.557 45.558 0 25.16 20.397 45.557 45.557 45.557 25.161 0 45.558-20.396 45.558-45.557 0-25.16-20.397-45.558-45.558-45.558Zm7.686 59.995c.081.29.151.54.312.7h8.854v-.57c-.285-.571-.57-1.714-.856-2.857-.286-1.142-.286-2.57-.286-4.284v-14.281c0-2-.572-3.714-1.143-5.142-.57-1.428-1.714-2.856-2.856-3.713-1.428-1.142-2.856-1.714-4.57-2.285-1.714-.571-3.428-.857-5.427-.857-2.285 0-4.284.286-5.998.857-1.714.571-3.142 1.428-4.285 2.285-1.428 1.143-2.285 2.285-2.856 3.428-.571 1.142-.857 2.57-.857 3.999h8.57c0-1.143.285-2 1.142-2.857.857-.857 1.999-1.142 3.713-1.142 2 0 3.427.571 4.57 1.428.857.857 1.428 2 1.428 3.713v2h-4.856c-5.141 0-9.14.856-11.71 2.856-2.571 1.713-4 4.57-4 7.997 0 1.428.286 2.856.858 3.999.57 1.143 1.142 2.285 2.285 3.142 1.142.857 2.285 1.428 3.713 2 1.428.57 2.856.856 4.57.856.857 0 2 0 2.856-.285.762-.191 1.27-.381 1.777-.572.254-.095.508-.19.794-.286.135-.067.285-.134.445-.205.515-.23 1.118-.5 1.554-.937.286-.285.571-.5.857-.714.286-.214.571-.428.857-.714 0 .286.071.571.143.857.071.286.143.571.143.857.125.25.195.5.259.727Zm-5.686-5.583c-.572.286-1.429.286-2.285.286-1.428 0-2.857-.286-3.714-1.143-.856-.857-1.142-1.713-1.142-2.856 0-.571 0-1.428.286-2 .211-.635.58-.956.99-1.313.143-.124.29-.253.438-.4.571-.571 1.428-.857 2.285-1.143.857-.285 2-.285 3.427-.285h4.285v5.712l-1.143 1.143c-.285.571-.857.857-1.428 1.142-.571.286-1.142.571-2 .857Z" fill="rgba(255,255,255,0.88 )" fill-rule="evenodd" data-name="arweave"/></svg>