<svg xmlns="http://www.w3.org/2000/svg" width="85.561" height="75.939" viewBox="135.04 5.154 85.561 75.939"><g data-name="Avalanche"><path d="M156.514 81.093h-14.387c-3.023 0-4.516 0-5.427-.583a3.655 3.655 0 0 1-1.657-2.859c-.054-1.074.692-2.385 2.185-5.008l35.523-62.613c1.511-2.659 2.276-3.988 3.242-4.48a3.665 3.665 0 0 1 3.314 0c.965.492 1.73 1.821 3.241 4.48l7.303 12.748c1.657 2.895 2.495 4.352 2.86 5.882.4 1.657.4 3.405 0 5.062-.365 1.53-1.184 2.987-2.842 5.882L171.21 72.588c-1.675 2.933-2.513 4.408-3.678 5.518a10.85 10.85 0 0 1-4.426 2.568c-1.511.419-3.205.419-6.592.419Z" fill="rgba(255,255,255,0.88 )" fill-rule="evenodd" data-name="Path 1189"/><path d="M213.46 81.093h-20.615c-3.042 0-4.571 0-5.464-.582a3.692 3.692 0 0 1-1.657-2.878c-.054-1.074.71-2.385 2.24-5.026l10.289-17.665c1.512-2.604 2.277-3.897 3.224-4.388a3.627 3.627 0 0 1 3.296 0c.966.491 1.711 1.784 3.242 4.37L218.34 72.59c1.528 2.64 2.312 3.952 2.258 5.026a3.642 3.642 0 0 1-1.657 2.877c-.911.601-2.441.601-5.483.601Z" fill="rgba(255,255,255,0.88 )" fill-rule="evenodd" data-name="Path 1190"/></g></svg>