<svg xmlns="http://www.w3.org/2000/svg" width="74.157" height="85.561" viewBox="287.828 0 74.157 85.561"><path d="M333.242 71.09v9.67l-8.336 4.801-8.336-4.802v-9.67l8.336 4.802 8.336-4.801Zm-45.348-33.078 8.336 4.802v16.539l14.405 8.336v9.67l-22.74-13.138V38.012Zm74.09-.066v26.208l-22.74 13.138v-9.67l14.338-8.27V42.815l8.403-4.868Zm-22.673-13.071 8.336 4.801v9.67l-14.405 8.27v16.538l-8.336 4.802-8.336-4.802V47.615l-14.338-8.269v-9.67l8.336-4.801 14.338 8.27 14.405-8.27Zm8.27 21.34v9.736l-8.337 4.802v-9.736l8.336-4.802Zm-45.349.067 8.336 4.801v9.67l-8.336-4.802v-9.67Zm51.35-29.743 8.336 4.868v9.67l-8.336 4.801v-9.67l-8.336-4.868 8.336-4.801Zm-57.352 0 8.27 4.868-8.336 4.802v9.67l-8.336-4.802h.066V21.34l8.336-4.801Zm28.676 0 8.336 4.868-8.336 4.802-8.336-4.802 8.336-4.868Zm0-16.539 22.74 13.138-8.335 4.801-14.405-8.27-14.338 8.27-8.336-4.801L324.906 0Z" fill="rgba(255,255,255,0.88 )" fill-rule="evenodd" data-name="BSC"/></svg>