<svg xmlns="http://www.w3.org/2000/svg" width="67.163" height="85.561" viewBox="575.068 0 67.163 85.561"><path d="M604.963.82c2.069-1.093 5.217-1.093 7.285 0l21.11 11.15c1.246.659 1.93 1.64 2.053 2.652h.02v56.051c-.027 1.105-.718 2.202-2.073 2.917l-21.11 11.152c-2.068 1.092-5.216 1.092-7.285 0l-21.11-11.152c-1.349-.712-1.996-1.817-2.028-2.917a3.892 3.892 0 0 1 0-.282V15a2.87 2.87 0 0 1 0-.232v-.145h.009c.094-1.024.747-1.98 2.02-2.651L604.962.82Zm27.145 45.073-19.86 10.49c-2.068 1.093-5.216 1.093-7.285 0l-19.816-10.467v24.647l19.816 10.412c1.171.626 2.389 1.235 3.574 1.262h.069c1.183.005 2.332-.596 3.497-1.165l20.005-10.599v-24.58Zm-53.717 23.562c0 2.147.25 3.559.745 4.553.41.824 1.027 1.454 2.152 2.22l.064.044c.247.166.52.341.85.546l.391.24 1.199.723-1.72 2.843-1.342-.81-.225-.139c-.388-.24-.71-.445-1.01-.647-3.207-2.162-4.403-4.52-4.426-9.424v-.15h3.322Zm28.553-38.586a3.02 3.02 0 0 0-.43.184l-21.109 11.15a2.21 2.21 0 0 0-.063.035l-.018.01.033.02.048.026 21.11 11.151c.131.07.275.13.43.183V30.87Zm3.323 0v22.76c.154-.053.298-.114.43-.184l21.11-11.151.063-.035.018-.01-.033-.02-.049-.025-21.11-11.151a3.02 3.02 0 0 0-.429-.184Zm21.841-12.27-18.937 10.003 18.937 10.003V18.598Zm-46.96.023v19.96l18.892-9.98-18.893-9.98Zm25.549-14.864c-1.098-.58-3.084-.58-4.182 0l-21.11 11.151a2.234 2.234 0 0 0-.063.035l-.018.01.033.02.048.025 21.11 11.152c1.098.58 3.084.58 4.182 0l21.11-11.152.063-.034.018-.01-.033-.02-.049-.026-21.11-11.15Zm24.53 1.223 1.343.81.225.14c.388.239.71.444 1.01.647 3.206 2.162 4.403 4.52 4.426 9.423v.15h-3.322c0-2.148-.25-3.56-.745-4.554-.411-.824-1.027-1.454-2.152-2.22l-.065-.044a25.726 25.726 0 0 0-.85-.546l-.39-.239-1.2-.724 1.72-2.843Z" fill="rgba(255,255,255,0.88 )" fill-rule="evenodd" data-name="Fantom"/></svg>