<svg xmlns="http://www.w3.org/2000/svg" width="85.561" height="85.55" viewBox="703.41 0 85.561 85.55"><path d="M729.382 3.455a42.752 42.752 0 0 0-14.115 9.805 51.913 51.913 0 0 0-3.014 3.503l33.932 33.902 33.93-33.946a29.167 29.167 0 0 0-2.947-3.459 42.753 42.753 0 0 0-47.786-9.805Zm44.755 38.35c.557-1.348.842-2.793.838-4.252a11.04 11.04 0 0 0-2.328-6.814l-15.589 15.584a10.918 10.918 0 0 0 6.813 2.324 11.07 11.07 0 0 0 10.266-6.841Zm-44.402 6.822a11.113 11.113 0 0 0 5.674-2.267l-15.591-15.585a10.917 10.917 0 0 0-2.324 6.81 11.113 11.113 0 0 0 12.24 11.042Zm-26.325-5.835c0 23.639 19.16 42.758 42.775 42.758s42.773-19.152 42.784-42.758a41.74 41.74 0 0 0-6.123-22.166l-6.919 6.908a15.715 15.715 0 0 1-22.14 22.134l-7.567 7.567-7.568-7.567a15.714 15.714 0 0 1-22.142-22.134l-6.91-6.908a42.55 42.55 0 0 0-6.19 22.166Zm42.807-37.227c10.022 0 19.323 3.864 26.3 10.904L746.22 42.758l-26.302-26.29a36.716 36.716 0 0 1 26.3-10.903Z" fill="rgba(255,255,255,0.88 )" fill-rule="evenodd" data-name="Gnosis Chain"/></svg>