<svg xmlns="http://www.w3.org/2000/svg" width="85.796" height="85.561" viewBox="856.197 0 85.796 85.561"><path d="M923.486 0a18.498 18.498 0 0 0-18.513 18.45V38.91c-1.907.128-3.856.21-5.877.21s-3.961.08-5.878.195V18.45a18.513 18.513 0 0 0-37.02 0v48.894a18.513 18.513 0 0 0 37.02 0V46.888a86.877 86.877 0 0 1 5.878-.21c2.02 0 3.96-.081 5.877-.196v20.863a18.513 18.513 0 0 0 37.02 0V18.451A18.499 18.499 0 0 0 923.487 0Zm-48.78 7.56a10.92 10.92 0 0 1 10.924 10.89v21.664a62.27 62.27 0 0 0-15.729 4.448 28.598 28.598 0 0 0-6.101 3.641V18.451A10.92 10.92 0 0 1 874.706 7.56Zm10.924 59.785a10.924 10.924 0 1 1-21.85 0v-4.904c0-4.333 3.433-8.437 9.186-10.992a53.86 53.86 0 0 1 12.664-3.703v19.6Zm37.856 10.891a10.919 10.919 0 0 1-10.925-10.89V45.681a62.272 62.272 0 0 0 15.729-4.447 28.606 28.606 0 0 0 6.101-3.642v29.752a10.918 10.918 0 0 1-10.905 10.891Zm1.739-43.918a53.856 53.856 0 0 1-12.664 3.704V18.451a10.923 10.923 0 0 1 18.65-7.725 10.925 10.925 0 0 1 3.199 7.725v4.905c0 4.313-3.432 8.417-9.185 10.962Z" fill="rgba(255,255,255,0.88 )" fill-rule="evenodd" data-name="Harmony"/></svg>