<svg xmlns="http://www.w3.org/2000/svg" width="91.115" height="77.789" viewBox="711.982 188.443 91.115 77.789"><path d="M746.081 196.796a28.497 28.497 0 0 1 20.146-8.353 28.498 28.498 0 0 1 28.488 28.504v.06l-.002.046a1.404 1.404 0 0 1-1.403 1.322h-54.167a1.402 1.402 0 0 1-1.403-1.322v-.107a28.497 28.497 0 0 1 8.341-20.15Zm-27.494 52.938a1.731 1.731 0 0 0-.777-2.566 1.734 1.734 0 1 0 .777 2.566Zm72.84-10.56h-58.123a1.71 1.71 0 0 0-1.502 2.522l.03.054a1.705 1.705 0 0 0 1.502.894h58.064a1.709 1.709 0 0 0 1.503-.894l.029-.054a1.706 1.706 0 0 0-.037-1.688 1.712 1.712 0 0 0-1.467-.834Zm-58.124-15.725h65.846a1.713 1.713 0 0 1 1.705 1.842v.02a1.706 1.706 0 0 1-1.705 1.608h-65.843a1.704 1.704 0 0 1-1.704-1.609c-.003-.018-.003-.036-.003-.054a1.71 1.71 0 0 1 1.704-1.807Zm41.054 39.313h-29.675a1.708 1.708 0 0 0-.762 3.237l.109.055c.236.117.497.178.761.178h29.457c.264 0 .525-.06.762-.178l.108-.055a1.71 1.71 0 0 0-.76-3.237Zm-11.545-7.862h29.674a1.706 1.706 0 0 1 1.66 1.318 1.707 1.707 0 0 1-.9 1.919l-.108.054a1.705 1.705 0 0 1-.761.177H762.92c-.264.001-.525-.06-.761-.177l-.109-.054a1.706 1.706 0 0 1-.899-1.92 1.707 1.707 0 0 1 1.66-1.317Zm-10.788-4.94-.05-.054a1.708 1.708 0 0 1 1.252-2.87h48.162a1.712 1.712 0 0 1 1.566 1.025 1.714 1.714 0 0 1-.313 1.845l-.05.054a1.71 1.71 0 0 1-1.252.546h-48.063a1.712 1.712 0 0 1-1.252-.546Zm-5.687-2.924h-22.999a1.709 1.709 0 0 0-.759 3.238l.109.055c.236.117.497.178.761.177h22.78c.264 0 .524-.06.76-.177l.11-.055a1.706 1.706 0 0 0 .899-1.92 1.707 1.707 0 0 0-1.66-1.318Zm-17.492-21.852a1.734 1.734 0 1 1-3.468-.002 1.734 1.734 0 0 1 3.468.002Zm40.883 8.277-.014.054a1.712 1.712 0 0 1-1.65 1.266h-48.142a1.711 1.711 0 0 1-1.649-1.266l-.015-.054a1.706 1.706 0 0 1 1.65-2.149h48.17a1.706 1.706 0 0 1 1.65 2.149Zm-54.28-.415a1.733 1.733 0 1 1-3.466-.002 1.733 1.733 0 0 1 3.467.002Zm13.104 8.825a1.731 1.731 0 0 0-.215-2.188 1.734 1.734 0 1 0 .215 2.188Zm29.802 14.763a1.735 1.735 0 1 1-3.47-.002 1.735 1.735 0 0 1 3.47.002Zm-18.424 8.826a1.734 1.734 0 1 0-2.884-1.928 1.734 1.734 0 0 0 2.884 1.928Z" fill="rgba(255,255,255,0.88 )" fill-rule="evenodd" data-name="MoonBeam"/></svg>