<svg xmlns="http://www.w3.org/2000/svg" width="76.759" height="97.613" viewBox="144.561 176.379 76.759 97.613"><path d="M145.753 213.628a37.86 37.86 0 0 0 .608 5.898c.045.249.127.182.248.087.564-.39 1.124-.779 1.693-1.158 1.518-1.013 2.965-2.134 4.57-3.01 3.722-2.02 7.71-2.963 11.91-3.159a29.83 29.83 0 0 1 7.444.583 24.58 24.58 0 0 1 9.18 3.831c2.38 1.65 4.775 3.278 7.162 4.918 3.955 2.712 8.396 3.826 13.126 3.97a26.065 26.065 0 0 0 4.007-.203 25.68 25.68 0 0 0 6.538-1.695c2.06-.834 3.85-2.114 5.662-3.362a.378.378 0 0 0 .152-.276c.38-1.906.609-3.839.684-5.78a34.928 34.928 0 0 0-.888-9.474c-1.985-8.385-6.325-15.302-13.096-20.632-6.283-4.945-13.478-7.466-21.46-7.766a35.072 35.072 0 0 0-6.08.322 35.96 35.96 0 0 0-11.165 3.44 36.34 36.34 0 0 0-10.094 7.406 36.017 36.017 0 0 0-5.08 6.652c-3.396 5.737-5.084 11.952-5.12 19.408Zm57.013 21.163c.784 0 1.567-.012 2.35-.08a31.64 31.64 0 0 0 2.326-.28 25.467 25.467 0 0 0 8.12-2.67c1.753-.94 3.329-2.15 4.962-3.262.218-.16.392-.37.509-.613a2.064 2.064 0 0 0-.085-2.233 2.073 2.073 0 0 0-1.985-.953c-.58.032-1.017.352-1.466.662-1.648 1.14-3.285 2.288-5.134 3.1a23.81 23.81 0 0 1-8.538 2.017 23.216 23.216 0 0 1-6.141-.529 21.935 21.935 0 0 1-7.233-2.943 171.289 171.289 0 0 1-6.285-4.3 28.297 28.297 0 0 0-8.377-4.218 32.457 32.457 0 0 0-12.736-1.116c-1.95.214-3.877.607-5.754 1.176a26.41 26.41 0 0 0-7.712 3.83c-1.323.949-2.682 1.842-4.025 2.76a2.151 2.151 0 0 0-.94 2.325 2.142 2.142 0 0 0 3.325 1.258c.992-.657 1.945-1.337 2.923-2 1.38-.93 2.714-1.933 4.218-2.68 3.198-1.595 6.607-2.364 10.158-2.535a27.985 27.985 0 0 1 7.33.585 21.82 21.82 0 0 1 7.65 3.146 701.356 701.356 0 0 1 6.677 4.57c1.33.966 2.742 1.812 4.22 2.53a27.634 27.634 0 0 0 11.643 2.453Zm-36.282 15.173h.025v21.314c0 .308.037.615.11.913.409 1.685 2.29 2.362 3.582 1.273.692-.583.926-1.394.926-2.268v-40.844a16.3 16.3 0 0 0-.104-2.255 2.263 2.263 0 0 0-1.775-1.926 2.335 2.335 0 0 0-2.367 1.032c-.374.594-.4 1.241-.4 1.921 0 6.948.002 13.894.003 20.84Zm31.393 1.839v-10.95a2.528 2.528 0 0 0-.037-.534 2.25 2.25 0 0 0-2.508-1.786 2.26 2.26 0 0 0-1.985 2.268v21.9a2.264 2.264 0 0 0 1.389 2.15c.28.118.58.177.883.177a2.316 2.316 0 0 0 2.27-2.335c-.031-3.63-.012-7.26-.012-10.89Zm-35.73-12.022v-10.384a3.832 3.832 0 0 0-.308-1.563 2.032 2.032 0 0 0-1.84-1.295 2.01 2.01 0 0 0-1.807.836 3.447 3.447 0 0 0-.64 2.18v20.712c.028.588.224 1.155.565 1.635a2.152 2.152 0 0 0 2.025.958c.893-.085 1.442-.64 1.762-1.447.172-.444.256-.918.248-1.394-.003-3.411-.008-6.824-.005-10.238Zm44.643 11.196v-9.29a2.285 2.285 0 0 0-.641-1.632 2.273 2.273 0 0 0-1.612-.691 2.266 2.266 0 0 0-2.302 2.303v18.61a2.189 2.189 0 0 0 .744 1.716 2.176 2.176 0 0 0 2.536.353c.88-.422 1.285-1.174 1.285-2.141-.002-3.077-.008-6.153-.01-9.228Zm-26.746-11.166v-6.906c0-.694-.054-1.382-.424-2.01-.821-1.394-2.747-1.533-3.66-.248-.426.603-.516 1.306-.516 2.013-.01 4.764-.01 9.527 0 14.29-.01.487.067.972.228 1.431a2.109 2.109 0 0 0 1.985 1.449 2.212 2.212 0 0 0 2.131-1.337 4.258 4.258 0 0 0 .269-1.78c.002-2.295-.013-4.6-.013-6.902Zm-26.854 1.553v-6.608c0-.722.017-1.446-.3-2.128-.708-1.534-2.683-1.856-3.698-.593a2.995 2.995 0 0 0-.585 1.925c-.018 2.518.015 5.04-.025 7.558-.04 2.303-.013 4.605 0 6.908-.004.419.048.836.154 1.24a2.205 2.205 0 0 0 2.478 1.66c.361-.055.703-.2.996-.419.729-.546.96-1.345.965-2.206.03-2.451.015-4.9.015-7.337Zm62.607 2.167v-4.018a2.201 2.201 0 0 0-.025-.444 2.288 2.288 0 0 0-2.397-1.838 2.272 2.272 0 0 0-2.108 2.282v8.034a2.272 2.272 0 0 0 3.131 2.118 2.263 2.263 0 0 0 1.401-2.117l-.002-4.017Zm-26.87-4.22v-1.984a2.27 2.27 0 0 0-2.22-2.233 2.264 2.264 0 0 0-1.668.664 2.278 2.278 0 0 0-.667 1.666v3.781c.001.208.028.415.08.616a2.263 2.263 0 0 0 3.922.944c.363-.42.56-.96.556-1.515l-.003-1.938Z" fill="rgba(255,255,255,0.88 )" fill-rule="evenodd" data-name="MoonRiver"/></svg>