<svg xmlns="http://www.w3.org/2000/svg" width="77.56" height="77.56" viewBox="287.742 187.358 77.56 77.56"><path d="m349.994 191.295-16.212 24.07a1.724 1.724 0 0 0 2.559 2.263l15.959-13.843a.647.647 0 0 1 1.077.49v43.337a.648.648 0 0 1-1.142.415l-48.238-57.745a8.266 8.266 0 0 0-6.307-2.924h-1.686a8.262 8.262 0 0 0-8.262 8.262v61.035c0 4.563 3.7 8.262 8.262 8.262a8.27 8.27 0 0 0 7.045-3.936l16.212-24.071a1.724 1.724 0 0 0-2.558-2.262l-15.959 13.842a.646.646 0 0 1-1.077-.49v-43.348a.646.646 0 0 1 1.142-.414l48.233 57.755a8.264 8.264 0 0 0 6.307 2.924h1.685a8.262 8.262 0 0 0 8.268-8.262V195.62a8.262 8.262 0 0 0-8.262-8.262 8.27 8.27 0 0 0-7.046 3.937Z" fill="rgba(255,255,255,0.88 )" fill-rule="evenodd" data-name="Near"/></svg>