<svg xmlns="http://www.w3.org/2000/svg" width="91.115" height="91.115" viewBox="430.923 180.039 91.115 91.115"><path d="M430.923 225.597c0-25.16 20.397-45.558 45.557-45.558 25.161 0 45.558 20.397 45.558 45.558 0 25.16-20.397 45.557-45.558 45.557-25.16 0-45.557-20.396-45.557-45.557Zm44.28 2.817c.478-1.915.89-3.886 1.232-5.915.102-.6.158-1.206.17-1.813 0-1.595-.4-2.963-1.198-4.102a7.178 7.178 0 0 0-3.28-2.6 11.936 11.936 0 0 0-4.72-.888c-6.45 0-10.45 3.134-12.002 9.403-.546 2.3-.968 4.273-1.264 5.915a12.19 12.19 0 0 0-.172 1.846c0 2.395.855 4.241 2.564 5.54 1.734 1.277 3.957 1.915 6.668 1.915 3.283 0 5.904-.764 7.865-2.292 1.961-1.55 3.34-3.886 4.137-7.009Zm21.878-1.274c1.733-1.255 2.884-3.192 3.454-5.813a8.208 8.208 0 0 0 .211-1.777c0-1.987-.775-3.506-2.325-4.555-1.527-1.049-3.556-1.573-6.087-1.573h-9.098a1.035 1.035 0 0 0-.65.24.973.973 0 0 0-.376.615l-4.718 22.232a.824.824 0 0 0 .102.616.73.73 0 0 0 .581.238h4.65c.238-.003.467-.088.651-.238a.982.982 0 0 0 .375-.616l1.573-7.488h4.616c2.987 0 5.334-.627 7.041-1.88Zm-30.118-9.13a4.99 4.99 0 0 0-3.28 1.128c-.89.753-1.528 1.904-1.916 3.454-.41 1.527-.82 3.396-1.23 5.607a7.31 7.31 0 0 0-.137 1.436c0 2.097 1.094 3.146 3.28 3.147a4.86 4.86 0 0 0 3.25-1.13c.91-.75 1.56-1.905 1.948-3.462.525-2.143.924-4.012 1.197-5.607.092-.485.137-.978.137-1.471 0-2.068-1.083-3.102-3.25-3.102Zm26.771.719c-.388-.365-1.048-.547-1.983-.547h-4.103l-1.3 6.121h3.933a4.075 4.075 0 0 0 2.495-.785 3.687 3.687 0 0 0 1.435-2.258c.065-.339.1-.682.104-1.026 0-.663-.195-1.165-.58-1.505Z" fill="rgba(255,255,255,0.88 )" fill-rule="evenodd" data-name="Optimism"/></svg>