<svg xmlns="http://www.w3.org/2000/svg" width="91.115" height="80.704" viewBox="857.47 185.528 91.115 80.704"><path d="m925.119 242.364 21.612-12.48a3.72 3.72 0 0 0 1.854-3.211v-24.96a3.72 3.72 0 0 0-1.854-3.21l-21.612-12.48a3.72 3.72 0 0 0-3.707 0l-21.613 12.48a3.72 3.72 0 0 0-1.853 3.21v44.602l-15.157 8.747-15.157-8.747v-17.499l15.157-8.746 9.995 5.772v-11.739l-8.141-4.704a3.734 3.734 0 0 0-1.854-.496c-.65 0-1.293.174-1.853.496l-21.613 12.479a3.72 3.72 0 0 0-1.853 3.212v24.959c0 1.319.708 2.548 1.853 3.21l21.613 12.48a3.737 3.737 0 0 0 3.707 0l21.612-12.48a3.717 3.717 0 0 0 1.853-3.21V205.44l.27-.154 14.88-8.592 15.158 8.746v17.5l-15.157 8.747-9.983-5.76v11.739l8.13 4.692a3.737 3.737 0 0 0 3.706 0l.007.006Z" fill="rgba(255,255,255,0.88 )" fill-rule="evenodd" data-name="polygon"/></svg>